<svg width="960" height="600" viewBox="0 0 960 600" fill="none" xmlns="http://www.w3.org/2000/svg">
  <rect width="960" height="600" rx="48" fill="#071826"/>
  <rect x="48" y="48" width="864" height="504" rx="40" fill="url(#paint0_linear)"/>
  <rect x="96" y="116" width="768" height="368" rx="32" fill="rgba(5, 15, 24, 0.75)" stroke="rgba(4, 217, 196, 0.25)" stroke-width="2"/>
  <circle cx="160" cy="160" r="6" fill="#FFB347"/>
  <circle cx="184" cy="160" r="6" fill="#04D9C4"/>
  <circle cx="208" cy="160" r="6" fill="#246BFD"/>
  <rect x="144" y="208" width="320" height="180" rx="20" fill="url(#paint1_linear)"/>
  <rect x="496" y="208" width="280" height="28" rx="14" fill="#0F2536"/>
  <rect x="496" y="256" width="320" height="24" rx="12" fill="#0F2536"/>
  <rect x="496" y="296" width="240" height="24" rx="12" fill="#0F2536"/>
  <rect x="496" y="336" width="280" height="24" rx="12" fill="#0F2536"/>
  <rect x="496" y="376" width="200" height="24" rx="12" fill="#0F2536"/>
  <text x="144" y="430" fill="#F4F5F7" font-family="Space Grotesk" font-size="24" font-weight="600">JavaFX Media Explorer</text>
  <text x="144" y="462" fill="#9FB1C7" font-family="Inter" font-size="16">API consumption · Team leadership · SOLID</text>
  <defs>
    <linearGradient id="paint0_linear" x1="0" y1="0" x2="960" y2="600" gradientUnits="userSpaceOnUse">
      <stop offset="0.05" stop-color="#041121"/>
      <stop offset="0.45" stop-color="#0C2135"/>
      <stop offset="0.9" stop-color="#071826"/>
    </linearGradient>
    <linearGradient id="paint1_linear" x1="144" y1="208" x2="464" y2="388" gradientUnits="userSpaceOnUse">
      <stop stop-color="#246BFD"/>
      <stop offset="1" stop-color="#04D9C4"/>
    </linearGradient>
  </defs>
</svg>
